<mxfile host="app.diagrams.net" modified="2023-09-18T07:50:34.244Z" agent="Mozilla/5.0 (Windows NT 10.0; Win64; x64; rv:109.0) Gecko/20100101 Firefox/117.0" etag="eSa2C3VqBCf6UBtR5CYa" version="21.7.5" type="device">
  <diagram name="Page-1" id="_ZwUgenWTY3hvOx14HUx">
    <mxGraphModel dx="1185" dy="648" grid="1" gridSize="10" guides="1" tooltips="1" connect="1" arrows="1" fold="1" page="1" pageScale="1" pageWidth="850" pageHeight="1100" math="0" shadow="0">
      <root>
        <mxCell id="0" />
        <mxCell id="1" parent="0" />
        <mxCell id="b-V7emUu88v56z_93IrT-3" value="" style="edgeStyle=orthogonalEdgeStyle;rounded=0;orthogonalLoop=1;jettySize=auto;html=1;" edge="1" parent="1" source="b-V7emUu88v56z_93IrT-1" target="b-V7emUu88v56z_93IrT-2">
          <mxGeometry relative="1" as="geometry">
            <Array as="points">
              <mxPoint x="400" y="240" />
              <mxPoint x="400" y="240" />
            </Array>
          </mxGeometry>
        </mxCell>
        <mxCell id="b-V7emUu88v56z_93IrT-1" value="&lt;div&gt;Presentatie Laag&lt;br&gt;&lt;/div&gt;&lt;span style=&quot;font-weight: normal;&quot;&gt;Svelte Website&lt;/span&gt;" style="shape=folder;fontStyle=1;spacingTop=10;tabWidth=40;tabHeight=14;tabPosition=left;html=1;whiteSpace=wrap;fillColor=#f8cecc;strokeColor=#b85450;" vertex="1" parent="1">
          <mxGeometry x="320" y="110" width="160" height="90" as="geometry" />
        </mxCell>
        <mxCell id="b-V7emUu88v56z_93IrT-2" value="&lt;div&gt;Logic Laag&lt;/div&gt;&lt;div&gt;&lt;span style=&quot;font-weight: normal;&quot;&gt;Asp.net Webserver&lt;/span&gt;&lt;br&gt;&lt;/div&gt;" style="shape=folder;fontStyle=1;spacingTop=10;tabWidth=40;tabHeight=14;tabPosition=left;html=1;whiteSpace=wrap;fillColor=#e1d5e7;strokeColor=#9673a6;" vertex="1" parent="1">
          <mxGeometry x="320" y="280" width="160" height="90" as="geometry" />
        </mxCell>
        <mxCell id="b-V7emUu88v56z_93IrT-5" style="edgeStyle=orthogonalEdgeStyle;rounded=0;orthogonalLoop=1;jettySize=auto;html=1;" edge="1" parent="1" source="b-V7emUu88v56z_93IrT-4" target="b-V7emUu88v56z_93IrT-2">
          <mxGeometry relative="1" as="geometry">
            <Array as="points">
              <mxPoint x="400" y="400" />
              <mxPoint x="400" y="400" />
            </Array>
          </mxGeometry>
        </mxCell>
        <mxCell id="b-V7emUu88v56z_93IrT-4" value="&lt;div&gt;DAL Laag&lt;/div&gt;&lt;div&gt;&lt;span style=&quot;font-weight: normal;&quot;&gt;MongoDB Database&lt;/span&gt;&lt;br&gt;&lt;/div&gt;" style="shape=folder;fontStyle=1;spacingTop=10;tabWidth=40;tabHeight=14;tabPosition=left;html=1;whiteSpace=wrap;fillColor=#d5e8d4;strokeColor=#82b366;" vertex="1" parent="1">
          <mxGeometry x="320" y="460" width="160" height="90" as="geometry" />
        </mxCell>
      </root>
    </mxGraphModel>
  </diagram>
</mxfile>
